<svg width="343" height="180" viewBox="0 0 343 180" fill="none" xmlns="http://www.w3.org/2000/svg">
<mask id="mask0_290_14476" style="mask-type:luminance" maskUnits="userSpaceOnUse" x="266" y="16" width="67" height="69">
<path d="M266.169 42.944L299.042 84.7161L304.327 68.9823L306.933 61.2117L332.018 58.7673L299.146 16.9949L266.169 42.944Z" fill="white"/>
</mask>
<g mask="url(#mask0_290_14476)">
<path d="M266.169 42.944L299.042 84.7161L304.327 68.9823L306.933 61.2117L332.018 58.7673L299.146 16.9949L266.169 42.944Z" fill="url(#paint0_linear_290_14476)"/>
</g>
<path d="M295.828 20.1363L296.354 22.622L294.605 24.4629L297.131 24.7319L298.34 26.9644L299.376 24.6456L301.874 24.1845L299.988 22.4822L300.321 19.9633L298.12 21.2322L295.828 20.1363Z" fill="white"/>
<path d="M293.696 30.6623L294.221 33.1455L292.472 34.9876L294.997 35.257L296.207 37.4879L297.244 35.1688L299.742 34.7077L297.856 33.0069L298.189 30.4893L295.988 31.7553L293.696 30.6623Z" fill="white"/>
<path d="M280.51 41.1138L281.035 43.5983L279.285 45.4408L281.81 45.7084L283.023 47.9404L284.057 45.6219L286.553 45.161L284.668 43.46L285.001 40.9424L282.801 42.2098L280.51 41.1138Z" fill="white"/>
<path d="M282.892 30.3889L283.417 32.8733L281.667 34.7142L284.192 34.9822L285.404 37.2141L286.439 34.8953L288.936 34.4345L287.051 32.7335L287.384 30.2158L285.184 31.4819L282.892 30.3889Z" fill="white"/>
<path d="M269.951 40.6372L270.476 43.1204L268.726 44.9629L271.252 45.2319L272.464 47.4638L273.498 45.1453L275.996 44.6829L274.111 42.9818L274.444 40.4655L272.242 41.7319L269.951 40.6372Z" fill="white"/>
<path d="M304.434 30.9957L304.96 33.4798L303.21 35.321L305.736 35.5899L306.947 37.8235L307.982 35.5034L310.48 35.041L308.595 33.3399L308.926 30.8226L306.725 32.0903L304.434 30.9957Z" fill="white"/>
<path d="M291.492 41.2457L292.016 43.7304L290.269 45.5722L292.793 45.8402L294.004 48.0738L295.04 45.755L297.538 45.2939L295.652 43.5915L295.984 41.0742L293.783 42.3419L291.492 41.2457Z" fill="white"/>
<path d="M278.547 51.4957L279.073 53.9814L277.323 55.8222L279.849 56.0899L281.059 58.3238L282.096 56.0047L284.592 55.5426L282.707 53.8415L283.041 51.3223L280.84 52.5899L278.547 51.4957Z" fill="white"/>
<path d="M302.297 41.522L302.823 44.0061L301.074 45.847L303.598 46.115L304.809 48.3473L305.845 46.0298L308.342 45.5673L306.457 43.8663L306.79 41.3487L304.589 42.615L302.297 41.522Z" fill="white"/>
<path d="M289.111 51.9641L289.634 54.4505L287.886 56.2923L290.41 56.559L291.622 58.7926L292.658 56.4734L295.155 56.0126L293.27 54.3103L293.603 51.7926L291.401 53.0591L289.111 51.9641Z" fill="white"/>
<path d="M313.032 41.8485L313.557 44.333L311.808 46.1739L314.334 46.4428L315.543 48.6754L316.579 46.3566L319.077 45.8968L317.193 44.1941L317.524 41.6755L315.324 42.9428L313.032 41.8485Z" fill="white"/>
<path d="M300.09 52.0985L300.614 54.5833L298.866 56.4239L301.391 56.6931L302.602 58.9254L303.637 56.6066L306.135 56.1454L304.249 54.4435L304.583 51.9242L302.381 53.1948L300.09 52.0985Z" fill="white"/>
<path d="M287.149 62.3563L287.675 64.8421L285.925 66.6829L288.45 66.9522L289.661 69.1832L290.696 66.8657L293.194 66.4032L291.309 64.7022L291.642 62.1846L289.441 63.4522L287.149 62.3563Z" fill="white"/>
<path d="M310.896 52.3794L311.422 54.8652L309.671 56.7051L312.197 56.9727L313.408 59.2063L314.443 56.8875L316.941 56.4251L315.056 54.7254L315.389 52.2064L313.187 53.4728L310.896 52.3794Z" fill="white"/>
<path d="M297.708 62.8251L298.232 65.3099L296.484 67.1517L299.008 67.4197L300.218 69.6523L301.256 67.3329L303.753 66.872L301.866 65.17L302.199 62.6524L299.998 63.9214L297.708 62.8251Z" fill="white"/>
<path d="M321.639 52.7075L322.162 55.1924L320.413 57.0345L322.939 57.3009L324.15 59.5344L325.185 57.2144L327.683 56.7532L325.797 55.0525L326.13 52.5348L323.93 53.8022L321.639 52.7075Z" fill="white"/>
<path d="M295.753 73.2147L296.278 75.7005L294.53 77.5397L297.055 77.809L298.266 80.0426L299.301 77.7225L301.798 77.2617L299.914 75.559L300.245 73.0417L298.045 74.3091L295.753 73.2147Z" fill="white"/>
<mask id="mask1_290_14476" style="mask-type:luminance" maskUnits="userSpaceOnUse" x="179" y="70" width="58" height="65">
<path d="M179.562 83.8066L196.736 134.11L206.935 121.014L211.97 114.545L236.447 120.552L219.27 70.2474L179.562 83.8066Z" fill="white"/>
</mask>
<g mask="url(#mask1_290_14476)">
<path d="M179.562 83.8066L196.736 134.11L206.935 121.014L211.97 114.545L236.447 120.552L219.27 70.2474L179.562 83.8066Z" fill="url(#paint1_linear_290_14476)"/>
</g>
<path d="M215.104 72.1164L214.777 74.6327L212.516 75.7916L214.81 76.8814L215.213 79.3873L216.959 77.5432L219.469 77.9358L218.252 75.7065L219.401 73.44L216.905 73.9076L215.104 72.1164Z" fill="white"/>
<path d="M209.6 81.3339L209.272 83.8502L207.012 85.0091L209.305 86.0993L209.708 88.6064L211.453 86.761L213.962 87.1539L212.746 84.923L213.897 82.6575L211.399 83.1241L209.6 81.3339Z" fill="white"/>
<path d="M193.694 86.826L193.366 89.3423L191.106 90.5013L193.4 91.591L193.801 94.0986L195.547 92.2545L198.056 92.646L196.842 90.416L197.99 88.1499L195.495 88.6173L193.694 86.826Z" fill="white"/>
<path d="M199.494 77.4967L199.166 80.0172L196.906 81.1732L199.2 82.263L199.602 84.7704L201.348 82.9277L203.857 83.318L202.643 81.0879L203.79 78.8219L201.294 79.2895L199.494 77.4967Z" fill="white"/>
<path d="M183.889 82.886L183.561 85.4049L181.3 86.5612L183.595 87.6523L183.997 90.1611L185.742 88.3157L188.253 88.7069L187.037 86.4772L188.186 84.2108L185.688 84.6788L183.889 82.886Z" fill="white"/>
<path d="M219.621 85.2072L219.292 87.7265L217.031 88.8841L219.325 89.9739L219.728 92.4811L221.474 90.637L223.982 91.0288L222.769 88.7972L223.917 86.5324L221.421 86.9984L219.621 85.2072Z" fill="white"/>
<path d="M204.014 90.5904L203.685 93.1084L201.426 94.2656L203.72 95.3567L204.122 97.8642L205.867 96.0188L208.377 96.4116L207.162 94.1804L208.31 91.9155L205.813 92.3819L204.014 90.5904Z" fill="white"/>
<path d="M188.403 95.9735L188.076 98.4924L185.817 99.6497L188.109 100.74L188.512 103.247L190.257 101.403L192.767 101.794L191.551 99.5648L192.7 97.3L190.203 97.765L188.403 95.9735Z" fill="white"/>
<path d="M214.119 94.4263L213.792 96.944L211.531 98.1029L213.825 99.1927L214.228 101.7L215.973 99.8548L218.483 100.246L217.267 98.0164L218.417 95.7512L215.92 96.2176L214.119 94.4263Z" fill="white"/>
<path d="M198.213 99.9185L197.886 102.436L195.625 103.595L197.919 104.685L198.322 107.192L200.068 105.348L202.576 105.74L201.363 103.509L202.511 101.245L200.014 101.711L198.213 99.9185Z" fill="white"/>
<path d="M224.139 98.2935L223.811 100.811L221.551 101.969L223.843 103.059L224.247 105.567L225.992 103.722L228.503 104.114L227.287 101.885L228.435 99.6187L225.94 100.085L224.139 98.2935Z" fill="white"/>
<path d="M208.53 103.685L208.202 106.203L205.942 107.362L208.236 108.45L208.639 110.958L210.384 109.114L212.893 109.505L211.678 107.275L212.827 105.01L210.329 105.477L208.53 103.685Z" fill="white"/>
<path d="M192.924 109.067L192.596 111.586L190.336 112.742L192.63 113.833L193.032 116.341L194.778 114.497L197.287 114.888L196.071 112.659L197.22 110.392L194.723 110.858L192.924 109.067Z" fill="white"/>
<path d="M218.638 107.52L218.31 110.038L216.051 111.195L218.343 112.285L218.747 114.794L220.494 112.949L223.002 113.341L221.785 111.11L222.935 108.845L220.438 109.312L218.638 107.52Z" fill="white"/>
<path d="M202.731 113.013L202.406 115.531L200.145 116.689L202.438 117.78L202.84 120.286L204.586 118.442L207.096 118.835L205.881 116.604L207.029 114.339L204.531 114.805L202.731 113.013Z" fill="white"/>
<path d="M228.658 111.394L228.331 113.914L226.07 115.072L228.364 116.161L228.767 118.669L230.513 116.823L233.021 117.216L231.808 114.986L232.956 112.721L230.459 113.186L228.658 111.394Z" fill="white"/>
<path d="M197.447 122.159L197.119 124.679L194.859 125.836L197.153 126.926L197.555 129.435L199.301 127.589L201.81 127.981L200.595 125.751L201.743 123.486L199.247 123.952L197.447 122.159Z" fill="white"/>
<mask id="mask2_290_14476" style="mask-type:luminance" maskUnits="userSpaceOnUse" x="79" y="95" width="46" height="57">
<path d="M79.7115 98.4007L82.9962 151.456L96.2905 141.517L102.854 136.607L124.877 148.862L121.592 95.8081L79.7115 98.4007Z" fill="white"/>
</mask>
<g mask="url(#mask2_290_14476)">
<path d="M79.7115 98.4007L82.9962 151.456L96.2905 141.517L102.854 136.607L124.877 148.862L121.592 95.8081L79.7115 98.4007Z" fill="url(#paint2_linear_290_14476)"/>
</g>
<path d="M117.083 96.5148L116.102 98.8583L113.618 99.378L115.541 101.035L115.268 103.559L117.438 102.241L119.754 103.282L119.172 100.811L120.878 98.9273L118.346 98.7188L117.083 96.5148Z" fill="white"/>
<path d="M109.339 103.961L108.358 106.303L105.871 106.822L107.796 108.479L107.523 111.004L109.694 109.687L112.01 110.727L111.426 108.255L113.132 106.374L110.6 106.164L109.339 103.961Z" fill="white"/>
<path d="M92.5441 105.054L91.5642 107.397L89.0788 107.917L91.0021 109.574L90.7295 112.098L92.8986 110.78L95.2156 111.821L94.6329 109.348L96.3404 107.467L93.8076 107.258L92.5441 105.054Z" fill="white"/>
<path d="M100.603 97.5852L99.6218 99.9287L97.1374 100.448L99.062 102.105L98.7885 104.629L100.959 103.31L103.275 104.352L102.691 101.88L104.397 99.9989L101.867 99.7888L100.603 97.5852Z" fill="white"/>
<path d="M84.1313 98.6566L83.1513 100.997L80.6644 101.517L82.589 103.175L82.3152 105.699L84.4864 104.382L86.8029 105.422L86.2199 102.95L87.9249 101.068L85.3939 100.859L84.1313 98.6566Z" fill="white"/>
<path d="M117.98 110.337L116.998 112.678L114.513 113.2L116.437 114.856L116.163 117.381L118.335 116.063L120.651 117.102L120.068 114.632L121.772 112.749L119.242 112.54L117.98 110.337Z" fill="white"/>
<path d="M101.506 111.407L100.524 113.749L98.0397 114.269L99.9634 115.927L99.6899 118.451L101.86 117.132L104.178 118.172L103.594 115.703L105.3 113.819L102.77 113.61L101.506 111.407Z" fill="white"/>
<path d="M85.0304 112.475L84.0482 114.818L81.5631 115.339L83.4879 116.996L83.2139 119.52L85.3854 118.202L87.7019 119.242L87.1178 116.77L88.8242 114.889L86.2939 114.679L85.0304 112.475Z" fill="white"/>
<path d="M110.238 117.779L109.257 120.121L106.77 120.641L108.695 122.297L108.421 124.824L110.592 123.506L112.908 124.547L112.325 122.073L114.03 120.192L111.498 119.983L110.238 117.779Z" fill="white"/>
<path d="M93.4434 118.875L92.4619 121.219L89.9772 121.737L91.9009 123.394L91.6278 125.92L93.7979 124.601L96.1151 125.641L95.5322 123.17L97.2367 121.288L94.7069 121.078L93.4434 118.875Z" fill="white"/>
<path d="M118.883 124.155L117.9 126.497L115.414 127.017L117.341 128.675L117.066 131.2L119.236 129.881L121.553 130.922L120.97 128.45L122.676 126.569L120.145 126.358L118.883 124.155Z" fill="white"/>
<path d="M102.406 125.225L101.425 127.569L98.9381 128.089L100.864 129.744L100.591 132.27L102.761 130.951L105.079 131.992L104.495 129.52L106.2 127.639L103.668 127.429L102.406 125.225Z" fill="white"/>
<path d="M85.9312 126.304L84.9509 128.647L82.4652 129.166L84.3887 130.824L84.1144 133.347L86.2853 132.03L88.6032 133.071L88.0191 130.598L89.7244 128.718L87.1938 128.508L85.9312 126.304Z" fill="white"/>
<path d="M111.139 131.6L110.158 133.943L107.673 134.464L109.596 136.121L109.322 138.645L111.494 137.326L113.81 138.368L113.228 135.896L114.934 134.013L112.402 133.804L111.139 131.6Z" fill="white"/>
<path d="M94.347 132.694L93.3651 135.036L90.8792 135.556L92.8041 137.213L92.5308 139.739L94.7014 138.42L97.0189 139.461L96.4356 136.99L98.1397 135.107L95.6094 134.898L94.347 132.694Z" fill="white"/>
<path d="M119.783 137.984L118.801 140.326L116.317 140.845L118.24 142.504L117.967 145.028L120.139 143.709L122.455 144.75L121.871 142.278L123.576 140.396L121.045 140.188L119.783 137.984Z" fill="white"/>
<path d="M86.8331 140.125L85.8512 142.468L83.3639 142.987L85.2906 144.645L85.0161 147.17L87.1867 145.851L89.5033 146.891L88.921 144.419L90.626 142.538L88.0938 142.328L86.8331 140.125Z" fill="white"/>
<mask id="mask3_290_14476" style="mask-type:luminance" maskUnits="userSpaceOnUse" x="224" y="46" width="64" height="68">
<path d="M224.941 67.1554L250.898 113.54L258.572 98.8222L262.358 91.5519L287.517 93.0501L261.56 46.6629L224.941 67.1554Z" fill="white"/>
</mask>
<g mask="url(#mask3_290_14476)">
<path d="M224.941 67.1554L250.898 113.54L258.572 98.8222L262.358 91.5519L287.517 93.0501L261.56 46.6629L224.941 67.1554Z" fill="url(#paint3_linear_290_14476)"/>
</g>
<path d="M286.799 93.0131L283.411 92.8099L259.635 47.7461L261.561 46.6678L275.349 71.3088L286.799 93.0131Z" fill="white"/>
<path d="M277.584 92.4644L274.196 92.2626L252.742 51.6018L255.275 50.184L277.584 92.4644Z" fill="white"/>
<path d="M268.371 91.9161L264.983 91.7143L245.853 55.4575L248.386 54.0397L268.371 91.9161Z" fill="white"/>
<path d="M260.82 94.5072L259.191 97.638L238.967 59.3077L241.5 57.8915L260.82 94.5072Z" fill="white"/>
<path d="M256.387 103.018L254.756 106.147L232.078 63.1635L234.61 61.7461L256.387 103.018Z" fill="white"/>
<path d="M251.949 111.519L250.896 113.537L230.508 77.1021L225.185 67.0127L227.72 65.5958L251.949 111.519Z" fill="white"/>
<mask id="mask4_290_14476" style="mask-type:luminance" maskUnits="userSpaceOnUse" x="132" y="86" width="53" height="62">
<path d="M132.386 95.7158L143.694 147.655L155.325 135.812L161.066 129.962L184.695 138.728L173.387 86.7891L132.386 95.7158Z" fill="white"/>
</mask>
<g mask="url(#mask4_290_14476)">
<path d="M132.386 95.7158L143.694 147.655L155.325 135.812L161.066 129.962L184.695 138.728L173.387 86.7891L132.386 95.7158Z" fill="url(#paint4_linear_290_14476)"/>
</g>
<path d="M184.022 138.477L180.839 137.296L171.23 87.2583L173.387 86.7885L179.394 114.378L184.022 138.477Z" fill="white"/>
<path d="M175.373 135.267L172.191 134.085L163.52 88.9374L166.357 88.3186L175.373 135.267Z" fill="white"/>
<path d="M166.717 132.056L163.535 130.876L155.804 90.6171L158.642 89.9984L166.717 132.056Z" fill="white"/>
<path d="M158.734 132.339L156.262 134.859L148.088 92.299L150.926 91.6802L158.734 132.339Z" fill="white"/>
<path d="M152.015 139.187L149.543 141.703L140.378 93.9773L143.214 93.3589L152.015 139.187Z" fill="white"/>
<path d="M145.291 146.025L143.695 147.648L134.812 106.852L132.662 95.6494L135.499 95.0322L145.291 146.025Z" fill="white"/>
<mask id="mask5_290_14476" style="mask-type:luminance" maskUnits="userSpaceOnUse" x="16" y="90" width="51" height="60">
<path d="M24.8195 90.0466L16.2056 142.5L31.3804 135.772L38.8716 132.449L57.6115 149.3L66.2256 96.8477L24.8195 90.0466Z" fill="white"/>
</mask>
<g mask="url(#mask5_290_14476)">
<path d="M24.8195 90.0466L16.2056 142.5L31.3804 135.772L38.8716 132.449L57.6115 149.3L66.2256 96.8477L24.8195 90.0466Z" fill="url(#paint5_linear_290_14476)"/>
</g>
<path d="M57.081 148.825L54.5572 146.556L64.0524 96.4951L66.2292 96.854L61.6538 124.717L57.081 148.825Z" fill="white"/>
<path d="M50.2179 142.645L47.6936 140.375L56.2614 95.2065L59.1264 95.6757L50.2179 142.645Z" fill="white"/>
<path d="M43.355 136.481L40.8306 134.212L48.4697 93.9339L51.3351 94.4043L43.355 136.481Z" fill="white"/>
<path d="M35.8277 133.802L32.6016 135.234L40.679 92.6555L43.5429 93.1264L35.8277 133.802Z" fill="white"/>
<path d="M27.0573 137.695L23.832 139.125L32.8891 91.3778L35.7529 91.8486L27.0573 137.695Z" fill="white"/>
<path d="M18.2887 141.576L16.207 142.5L22.9738 101.3L25.0991 90.0932L27.9636 90.5625L18.2887 141.576Z" fill="white"/>
<path d="M312.051 1.94054C236.467 83.5415 112.874 116.419 6.48495 84.7018C4.99931 84.2585 4.3399 86.5645 5.81984 87.0065C112.989 118.956 237.586 85.8592 313.733 3.64902C314.778 2.52026 313.105 0.801401 312.051 1.94054Z" fill="white"/>
<defs>
<linearGradient id="paint0_linear_290_14476" x1="291.033" y1="19.0511" x2="307.155" y2="82.661" gradientUnits="userSpaceOnUse">
<stop stop-color="#3E63B7"/>
<stop offset="0.0807858" stop-color="#3E63B7"/>
<stop offset="1" stop-color="#2B388F"/>
</linearGradient>
<linearGradient id="paint1_linear_290_14476" x1="201.08" y1="74.8577" x2="214.929" y2="129.5" gradientUnits="userSpaceOnUse">
<stop stop-color="#3E63B7"/>
<stop offset="0.0807858" stop-color="#3E63B7"/>
<stop offset="1" stop-color="#2B388F"/>
</linearGradient>
<linearGradient id="paint2_linear_290_14476" x1="94.9228" y1="94.5454" x2="109.666" y2="152.717" gradientUnits="userSpaceOnUse">
<stop stop-color="#3E63B7"/>
<stop offset="0.0807858" stop-color="#3E63B7"/>
<stop offset="1" stop-color="#2B388F"/>
</linearGradient>
<linearGradient id="paint3_linear_290_14476" x1="245.96" y1="60.6358" x2="261.706" y2="90.4845" gradientUnits="userSpaceOnUse">
<stop stop-color="#ED2548"/>
<stop offset="1" stop-color="#C2202C"/>
</linearGradient>
<linearGradient id="paint4_linear_290_14476" x1="154.389" y1="95.6121" x2="160.755" y2="128.75" gradientUnits="userSpaceOnUse">
<stop stop-color="#ED2548"/>
<stop offset="1" stop-color="#C2202C"/>
</linearGradient>
<linearGradient id="paint5_linear_290_14476" x1="45.3163" y1="98.0551" x2="39.0285" y2="131.209" gradientUnits="userSpaceOnUse">
<stop stop-color="#ED2548"/>
<stop offset="1" stop-color="#C2202C"/>
</linearGradient>
</defs>
</svg>
